<svg width="180" height="331" viewBox="0 0 180 331" fill="none" xmlns="http://www.w3.org/2000/svg">
<g opacity="0.1">
<path d="M38.6572 33.7581L21.9229 33.7581C12.6807 33.7581 5.18848 41.2503 5.18848 50.4924V50.4924" stroke="#F2F2F2" stroke-width="8.36719" stroke-linecap="round" stroke-linejoin="round" stroke-dasharray="12.55 16.73"/>
<path d="M5.18842 50.4924L5.18847 229.821C5.18847 248.305 20.1729 263.289 38.6572 263.289V263.289" stroke="#F2F2F2" stroke-width="8.36719" stroke-linecap="round" stroke-linejoin="round" stroke-dasharray="12.55 16.73"/>
<path d="M146.005 296.758V296.758C146.005 278.274 131.02 263.289 112.536 263.289L34.4736 263.289" stroke="#F2F2F2" stroke-width="8.36719" stroke-linecap="round" stroke-linejoin="round" stroke-dasharray="12.55 16.73"/>
<path d="M145.536 302.565C149.002 302.565 151.812 299.755 151.812 296.289C151.812 292.823 149.002 290.014 145.536 290.014C142.07 290.014 139.261 292.823 139.261 296.289C139.261 299.755 142.07 302.565 145.536 302.565Z" stroke="#F2F2F2" stroke-width="12.5508" stroke-linecap="round" stroke-linejoin="round"/>
<path fill-rule="evenodd" clip-rule="evenodd" d="M32.7795 13.5966C31.1457 11.9628 28.4968 11.9628 26.863 13.5966C25.2292 15.2304 25.2292 17.8793 26.863 19.5131L36.4556 29.1057L34.0049 29.1057C31.6943 29.1057 29.8213 30.9787 29.8213 33.2892C29.8213 35.5998 31.6943 37.4728 34.0049 37.4728L36.4556 37.4728L26.863 47.0654C25.2292 48.6992 25.2292 51.3481 26.863 52.9819C28.4968 54.6157 31.1457 54.6157 32.7795 52.9819L48.0348 37.7266C50.4855 35.2759 50.4855 31.3026 48.0348 28.8519L32.7795 13.5966Z" fill="#F2F2F2"/>
</g>
</svg>
