<svg viewBox="0 0 24 24" fill="none" xmlns="http://www.w3.org/2000/svg"><path d="M19.125 10.875a7.127 7.127 0 00-7.126-7.125 7.128 7.128 0 00-7.125 7.125c0 3.727 3.4 6.75 7.125 6.75v2.625c4.328-2.196 7.126-5.729 7.126-9.375z" fill="#00897B"/><path d="M16.407 8.297l-.935 2.578h-5.158l-2.07 2.538L15.83 21h5.076v-8.203l-4.5-4.5z" fill="url(#paint0_linear)"/><path opacity=".2" d="M12 17.531c-3.712 0-7.098-2.998-7.125-6.706l-.001.05c0 3.727 3.4 6.75 7.125 6.75v-.094zm0 2.625v.094c4.327-2.196 7.125-5.729 7.125-9.375l-.001-.045c-.025 3.628-2.816 7.14-7.124 9.326zm1.594-6.47H8.906a.934.934 0 01-.663-.274.934.934 0 01-.276-.664v.094c0 .24.092.48.276.663a.933.933 0 00.663.276h4.688a.933.933 0 00.867-.58.936.936 0 00.071-.359v-.094a.936.936 0 01-.939.939zm.937-2.014l1.875 1.875v-.094l-1.875-1.875v.094z" fill="#263238"/><path d="M14.531 10.172V9a.933.933 0 00-.58-.868.936.936 0 00-.358-.071H8.906a.934.934 0 00-.867.58.937.937 0 00-.071.359v3.75c0 .24.091.48.275.663a.933.933 0 00.663.276h4.688a.933.933 0 00.867-.58.935.935 0 00.072-.359V11.58l1.874 1.874V8.297l-1.876 1.875z" fill="#F5F5F5"/><path d="M7.969 9v1.875h8.437V8.297l-1.875 1.875V9a.933.933 0 00-.58-.868.936.936 0 00-.359-.071H8.906a.934.934 0 00-.937.939z" fill="#E0E0E0"/><path d="M7.969 10.78h8.437v.095H7.969v-.094z" fill="#212121" fill-opacity=".02"/><path d="M7.969 10.875h8.437v.094H7.969v-.094z" fill="#fff" fill-opacity=".05"/><path opacity=".2" d="M8.906 8.156h4.688a.934.934 0 01.867.58.936.936 0 01.072.358v-.093a.934.934 0 00-.58-.868.936.936 0 00-.359-.071H8.906a.934.934 0 00-.867.58.937.937 0 00-.071.359v.093a.939.939 0 01.939-.939zm5.625 2.016v.094l1.875-1.875v-.094l-1.875 1.875z" fill="#fff"/><path opacity=".2" d="M12 3.843c3.917 0 7.1 3.166 7.124 7.08v-.05A7.127 7.127 0 0012 3.748a7.129 7.129 0 00-7.126 7.127l.001.043A7.127 7.127 0 0112 3.843z" fill="#fff"/><path d="M19.125 10.875a7.127 7.127 0 00-7.126-7.125 7.128 7.128 0 00-7.125 7.125c0 3.727 3.4 6.75 7.125 6.75v2.625c4.328-2.196 7.126-5.729 7.126-9.375z" fill="url(#paint1_radial)"/><defs><radialGradient id="paint1_radial" cx="0" cy="0" r="1" gradientUnits="userSpaceOnUse" gradientTransform="translate(6.906 5.797) scale(14.549)"><stop stop-color="#fff" stop-opacity=".1"/><stop offset="1" stop-color="#fff" stop-opacity="0"/></radialGradient><linearGradient id="paint0_linear" x1="11.923" y1="10.453" x2="18.087" y2="16.617" gradientUnits="userSpaceOnUse"><stop stop-color="#263238" stop-opacity=".2"/><stop offset="1" stop-color="#263238" stop-opacity=".02"/></linearGradient></defs></svg>